<?xml version="1.0" encoding="UTF-8"?>
<svg width="24px" height="24px" viewBox="0 0 24 24" version="1.1" xmlns="http://www.w3.org/2000/svg" xmlns:xlink="http://www.w3.org/1999/xlink">
    <title>0.图标/面型/icons_filled_location</title>
    <g id="0.图标/面型/icons_filled_location" stroke="none" stroke-width="1" fill="none" fill-rule="evenodd">
        <g id="icon22" fill="#000000">
            <g id="编组" transform="translate(4.500000, 2.500000)">
                <path d="M7.5,2.732206e-14 C11.6421356,2.732206e-14 15,3.33401492 15,7.44673075 C15,13.0487927 8.17880284,18.7543698 8.17880284,18.7543698 C7.80329794,19.0962683 7.20201194,19.095164 6.83442503,18.7666219 C6.83442503,18.7666219 0,13.0487927 0,7.44673075 C1.98124897e-16,3.33401492 3.35786438,2.732206e-14 7.5,2.732206e-14 Z M7.5,4.5 C5.84314575,4.5 4.5,5.84314575 4.5,7.5 C4.5,9.15685425 5.84314575,10.5 7.5,10.5 C9.15685425,10.5 10.5,9.15685425 10.5,7.5 C10.5,5.84314575 9.15685425,4.5 7.5,4.5 Z" id="形状结合"></path>
            </g>
        </g>
    </g>
</svg>