<?xml version="1.0" encoding="UTF-8"?>
<svg width="24px" height="24px" viewBox="0 0 24 24" version="1.1" xmlns="http://www.w3.org/2000/svg" xmlns:xlink="http://www.w3.org/1999/xlink">
    <!-- Generator: Sketch 55.2 (78181) - https://sketchapp.com -->
    <title>3.Icons/Filled/RedEnvelope</title>
    <desc>Created with Sketch.</desc>
    <g id="3.Icons/Filled/RedEnvelope" stroke="none" stroke-width="1" fill="none" fill-rule="evenodd">
        <g id="LuckyMoney备份" transform="translate(4.500000, 2.625000)" fill="#000000">
            <g id="Group-8">
                <path d="M7.5,9.06247855 C6.63705357,9.06247855 5.9375,8.36292495 5.9375,7.49997848 C5.9375,6.63703202 6.63705357,5.93747842 7.5,5.93747842 C8.36294643,5.93747842 9.0625,6.63703202 9.0625,7.49997848 C9.0625,8.36292495 8.36294643,9.06247855 7.5,9.06247855 M15,0.759989794 C15,0.340259021 14.6585208,3.68020731e-13 14.2561477,3.49726862e-13 L0.743852332,-2.64608752e-13 C0.333034033,-2.83286579e-13 -1.50587008e-14,0.336754118 -4.96157342e-15,0.759989794 L1.15463195e-14,1.45194196 C1.15463195e-14,4.09560268 2.29178571,6.32411458 5.42314286,7.02041667 C5.38157143,7.18807292 5.35714286,7.36241815 5.35714286,7.54302083 C5.35714286,7.61465774 5.361,7.68543155 5.36785714,7.75534226 C3.30064286,7.43168155 1.44942857,6.64648065 1.15463195e-14,5.54473958 L4.42236896e-14,18.0021922 C4.53070449e-14,18.415195 0.341479182,18.75 0.743852332,18.75 L14.2561477,18.75 C14.666966,18.75 15,18.423576 15,18.0021922 L15,5.54473958 C13.5505714,6.64648065 11.6993571,7.43168155 9.63214286,7.75534226 C9.639,7.68543155 9.64285714,7.61465774 9.64285714,7.54302083 C9.64285714,7.36241815 9.61842857,7.18807292 9.57685714,7.02041667 C12.7082143,6.32411458 15,4.09560268 15,1.45194196 L15,0.759989794 Z" id="Fill-1"></path>
            </g>
        </g>
    </g>
</svg>