<?xml version="1.0" encoding="UTF-8"?>
<svg width="22px" height="22px" viewBox="0 0 22 22" version="1.1" xmlns="http://www.w3.org/2000/svg" xmlns:xlink="http://www.w3.org/1999/xlink">
    <!-- Generator: Sketch 53.2 (72643) - https://sketchapp.com -->
    <title>keyboard</title>
    <desc>Created with Sketch.</desc>
    <g id="====slice====" stroke="none" stroke-width="1" fill="none" fill-rule="evenodd">
        <path d="M11,21 C5.4771525,21 1,16.5228475 1,11 C1,5.4771525 5.4771525,1 11,1 C16.5228475,1 21,5.4771525 21,11 C21,16.5228475 16.5228475,21 11,21 Z M11,19.8 C15.8601058,19.8 19.8,15.8601058 19.8,11 C19.8,6.1398942 15.8601058,2.2 11,2.2 C6.1398942,2.2 2.2,6.1398942 2.2,11 C2.2,15.8601058 6.1398942,19.8 11,19.8 Z M5.5,7 L7.5,7 L7.5,9 L5.5,9 L5.5,7 Z M8.5,7 L10.5,7 L10.5,9 L8.5,9 L8.5,7 Z M11.5,7 L13.5,7 L13.5,9 L11.5,9 L11.5,7 Z M14.5,7 L16.5,7 L16.5,9 L14.5,9 L14.5,7 Z M5.5,10 L7.5,10 L7.5,12 L5.5,12 L5.5,10 Z M8.5,10 L10.5,10 L10.5,12 L8.5,12 L8.5,10 Z M8,14 L14,14 L14,16 L8,16 L8,14 Z M11.5,10 L13.5,10 L13.5,12 L11.5,12 L11.5,10 Z M14.5,10 L16.5,10 L16.5,12 L14.5,12 L14.5,10 Z" id="图标颜色" fill="#797979"></path>
    </g>
</svg>